<?xml version="1.0" encoding="UTF-8"?>
<svg xmlns="http://www.w3.org/2000/svg" viewBox="0 0 96 96" width="96px" height="96px">
<g id="surface8050701">
<path style=" stroke:none;fill-rule:nonzero;fill:rgb(100%,41.176471%,38.039216%);fill-opacity:1;" d="M 84.636719 48.398438 L 90.050781 39.226562 C 90.269531 38.765625 90.300781 38.242188 90.136719 37.769531 L 79.410156 7.050781 C 79.078125 6.113281 78.097656 5.578125 77.144531 5.8125 L 45.621094 13.492188 C 45.023438 13.640625 44.527344 14.070312 44.296875 14.648438 L 40.941406 23.039062 L 30.71875 23.039062 C 30.1875 23.039062 29.671875 23.265625 29.308594 23.65625 L 6.269531 48.613281 C 5.558594 49.386719 5.59375 50.585938 6.351562 51.308594 L 30.515625 74.347656 C 30.871094 74.691406 31.351562 74.878906 31.835938 74.878906 L 42.855469 74.878906 L 46.214844 83.273438 C 46.460938 83.894531 47.015625 84.335938 47.671875 84.449219 L 81.195312 90.210938 C 81.300781 90.234375 81.414062 90.238281 81.515625 90.238281 C 82.410156 90.238281 83.199219 89.625 83.390625 88.734375 L 90.195312 57.570312 C 90.300781 57.089844 90.21875 56.585938 89.953125 56.160156 Z M 40.941406 23.039062 L 68.003906 18.082031 L 53.761719 46.078125 L 21.441406 46.078125 Z M 42.863281 74.878906 L 21.441406 53.761719 L 53.761719 53.761719 L 70.558594 79.042969 Z M 77.542969 74.683594 L 61.441406 49.921875 L 75.515625 21.921875 L 84.636719 48.40625 Z M 77.542969 74.683594 "/>
</g>
</svg>
